Patient4_TMGait_0pt4_01_left_37_GRF.mot
version=1
nRows=38
nColumns=19
inDegrees=no
endheader
time	F1x	F1y	F1z	M1x	M1y	M1z	F2x	F2y	F2z	M2x	M2y	M2z	EC1x	EC1y	EC1z	EC2x	EC2y	EC2z
46.2	14.4973	14.6235	1.1092	-3.6629	0.33404	15.6198	-51.6051	666.4107	-72.6846	230.2302	92.7443	742.3197	-0.0592	0.0182	-0.0073	-0.0462	0.0165	0.9585
46.2136	9.7335	10.3108	0.75469	-2.626	0.19052	11.0836	-46.4313	672.0267	-71.253	231.5506	90.6868	744.3436	-0.0592	0.0182	-0.0073	-0.0462	0.0165	0.9585
46.2271	5.7215	6.6793	0.44356	-1.7541	0.083422	7.2641	-41.2241	679.9962	-69.5406	234.0112	88.0889	748.194	-0.0592	0.0182	-0.0073	-0.0462	0.0165	0.9585
46.2407	2.6769	3.947	0.19822	-1.1004	0.0095398	4.3856	-36.1207	691.0023	-67.6229	237.9237	85.0241	754.6457	-0.0592	0.0182	-0.0073	-0.0462	0.0165	0.9585
46.2543	0.57424	2.0922	0.02766	-0.66031	-0.044008	2.4259	-31.0875	705.3895	-65.5833	243.419	81.5833	764.077	-0.0592	0.0182	-0.0073	-0.0462	0.0165	0.9585
46.2679	-0.73539	0.96362	-0.077644	-0.39902	-0.084175	1.2226	-26.0258	722.8819	-63.5029	250.3658	77.8546	776.2054	-0.0592	0.0182	-0.0073	-0.0462	0.0165	0.9585
46.2814	-1.4483	0.36281	-0.12409	-0.26439	-0.12681	0.56499	-20.8233	742.5264	-61.446	258.3618	73.9034	790.0628	-0.0592	0.0182	-0.0073	-0.0462	0.0165	0.9585
46.295	-1.7537	0.073048	-0.13363	-0.19704	-0.17157	0.22036	-15.4112	762.8048	-59.4717	266.7778	69.7971	804.1493	-0.0592	0.0182	-0.0073	-0.0462	0.0165	0.9585
46.3086	-1.8254	-0.1089	-0.1119	-0.13868	-0.23287	-0.019914	-9.8376	781.7965	-57.6374	274.8249	65.6329	816.6266	-0.0592	0.0182	-0.0073	-0.0462	0.0165	0.9585
46.3221	-1.7922	-0.35332	-0.072921	-0.038955	-0.30948	-0.33659	-4.2986	797.4224	-56.0114	281.6539	61.566	825.5717	-0.0592	0.0182	-0.0073	-0.0462	0.0165	0.9585
46.3357	-1.737	-0.81135	-0.015885	0.14771	-0.40809	-0.892	0.89817	807.8417	-54.645	286.5102	57.7792	829.363	-0.0592	0.0182	-0.0073	-0.0462	0.0165	0.9585
46.3493	-1.7015	-1.5955	0.04619	0.45713	-0.51609	-1.8165	5.4393	811.8516	-53.5466	288.8923	54.4202	827.0344	-0.0592	0.0182	-0.0073	-0.0462	0.0165	0.9585
46.3629	-1.6831	-2.7664	0.10798	0.90618	-0.6165	-3.1838	9.1189	809.1392	-52.6867	288.6517	51.5609	818.4624	-0.0592	0.0182	-0.0073	-0.0462	0.0165	0.9585
46.3764	-1.6356	-4.3074	0.15156	1.4811	-0.66948	-4.9706	11.9281	800.3699	-52.0393	286.0221	49.2058	804.4078	-0.0592	0.0182	-0.0073	-0.0462	0.0165	0.9585
46.39	-1.474	-6.0808	0.15313	2.1264	-0.6201	-7.0135	14.0386	787.083	-51.6195	281.5739	47.3368	786.4074	-0.0592	0.0182	-0.0073	-0.0462	0.0165	0.9585
46.4036	-1.0773	-7.7432	0.07918	2.7181	-0.38941	-8.9229	15.717	771.393	-51.4862	276.0956	45.9385	766.4979	-0.0592	0.0182	-0.0073	-0.0462	0.0165	0.9585
46.4171	-0.29397	-8.6957	-0.11352	3.0429	0.1245	-10.0191	17.2579	755.5925	-51.7228	270.4441	45.0003	746.8541	-0.0592	0.0182	-0.0073	-0.0462	0.0165	0.9585
46.4307	1.0401	-8.0429	-0.47326	2.779	1.0323	-9.2822	18.9128	741.7436	-52.3951	265.3891	44.5014	729.425	-0.0592	0.0182	-0.0073	-0.0462	0.0165	0.9585
46.4443	3.0625	-4.5479	-1.0458	1.4798	2.4327	-5.3051	20.8273	731.2621	-53.5298	261.4581	44.4108	715.5518	-0.0592	0.0182	-0.0073	-0.0462	0.0165	0.9585
46.4579	5.8397	3.3281	-1.855	-1.4107	4.3744	3.665	22.997	724.5941	-55.0842	258.8213	44.684	705.6778	-0.0592	0.0182	-0.0073	-0.0462	0.0165	0.9585
46.4714	9.3034	17.2735	-2.8906	-6.5033	6.8098	19.5653	25.2581	721.0723	-56.9412	257.2397	45.2643	699.2272	-0.0592	0.0182	-0.0073	-0.0462	0.0165	0.9585
46.485	13.1363	38.8365	-4.0664	-14.3553	9.5146	44.1858	27.3393	718.9738	-58.8879	256.0915	46.0464	694.6443	-0.0592	0.0182	-0.0073	-0.0462	0.0165	0.9585
46.4986	16.658	68.9035	-5.1821	-25.282	12.003	78.5616	28.928	715.7937	-60.6259	254.4787	46.8628	689.6305	-0.0592	0.0182	-0.0073	-0.0462	0.0165	0.9585
46.5121	18.6919	106.9028	-5.8873	-39.0638	13.4408	122.0735	29.7426	708.7157	-61.7955	251.4043	47.4754	681.5708	-0.0592	0.0182	-0.0073	-0.0462	0.0165	0.9585
46.5257	17.6968	149.9676	-5.6595	-54.6419	12.6785	171.4912	29.6095	695.2532	-62.0441	246.0044	47.6172	668.1192	-0.0592	0.0182	-0.0073	-0.0462	0.0165	0.9585
46.5393	12.9401	192.96	-3.8361	-70.1223	8.7252	220.9707	28.5097	673.9333	-61.1024	237.7936	47.0526	647.8226	-0.0592	0.0182	-0.0073	-0.0462	0.0165	0.9585
46.5529	6.0329	231.1808	-0.099775	-83.7861	1.8763	265.0416	26.6296	644.8103	-58.8996	226.8427	45.6625	620.5918	-0.0592	0.0182	-0.0073	-0.0462	0.0165	0.9585
46.5664	-1.1297	263.1202	4.6252	-95.1291	-6.1303	301.6845	24.3443	609.5007	-55.626	213.7721	43.4947	587.755	-0.0592	0.0182	-0.0073	-0.0462	0.0165	0.9585
46.58	-7.3792	290.0405	9.824	-104.6449	-14.2454	332.1436	22.1348	570.3725	-51.6752	199.4624	40.7325	551.3195	-0.0592	0.0182	-0.0073	-0.0462	0.0165	0.9585
46.5936	-12.2325	314.2997	14.7331	-113.2425	-21.4575	359.0478	20.3641	529.6862	-47.3659	184.7486	37.5188	513.2355	-0.0592	0.0182	-0.0073	-0.0462	0.0165	0.9585
46.6071	-15.7202	338.1039	19.1127	-121.7503	-27.4846	384.9557	19.1962	488.9465	-42.8833	170.185	33.9479	474.8164	-0.0592	0.0182	-0.0073	-0.0462	0.0165	0.9585
46.6207	-18.0062	362.9191	22.6183	-130.7223	-32.0369	411.469	18.5915	448.8617	-38.273	156.0209	30.0636	436.7145	-0.0592	0.0182	-0.0073	-0.0462	0.0165	0.9585
46.6343	-19.2902	389.493	25.3754	-140.4122	-35.3192	439.4303	18.36	409.4654	-33.5856	142.2497	25.9666	398.9911	-0.0592	0.0182	-0.0073	-0.0462	0.0165	0.9585
46.6479	-19.6477	418.1738	27.4985	-150.915	-37.5207	469.1861	18.2164	370.435	-28.9238	128.7219	21.8346	361.3921	-0.0592	0.0182	-0.0073	-0.0462	0.0165	0.9585
46.6614	-19.1762	449.1308	29.4605	-162.2295	-39.1905	500.9614	17.8524	331.3756	-24.4692	115.2497	17.9228	323.6126	-0.0592	0.0182	-0.0073	-0.0462	0.0165	0.9585
46.675	-18.0056	482.3023	31.6171	-174.2749	-40.7777	534.69	16.9997	292.0259	-20.3882	101.6953	14.4646	285.4503	-0.0592	0.0182	-0.0073	-0.0462	0.0165	0.9585
46.6886	-16.3926	517.3884	34.4176	-186.8884	-42.8561	570.0833	15.4246	252.4923	-16.7907	88.0591	11.6362	247.0628	-0.0592	0.0182	-0.0073	-0.0462	0.0165	0.9585
46.7021	-14.678	554.0701	38.0575	-199.9177	-45.7644	606.8742	13.0694	213.3507	-13.7084	74.5201	9.4995	209.0303	-0.0592	0.0182	-0.0073	-0.0462	0.0165	0.9585
